<svg width="18" height="17" viewBox="0 0 18 17" fill="none" xmlns="http://www.w3.org/2000/svg">
	<path d="M9.17952 15.0852L15.0868 9.17793L14.3825 8.47358L13.7921 9.06389L13.0807 8.35241C12.2648 7.53655 11.0699 7.23073 9.96241 7.55421L9.23442 7.76688L9.44708 7.03889C9.77063 5.93136 9.46475 4.73649 8.64889 3.92063L7.9374 3.20915L8.52771 2.61884L7.82336 1.91449L1.91602 7.82174L2.62036 8.52609L3.21067 7.93578L3.92216 8.64726C4.52296 9.24807 5.32926 9.57231 6.15488 9.57231C6.45044 9.57231 6.74848 9.53077 7.04045 9.44549L7.76844 9.23282L7.55577 9.96081C7.23222 11.0683 7.53811 12.2632 8.35397 13.0791L9.06545 13.7906L8.47514 14.3809L9.17952 15.0852ZM9.97376 11.7699L10.3772 10.3889L11.7582 9.98549C12.1381 9.87447 12.5352 9.86361 12.9083 9.94776L9.94524 12.9108C9.85704 12.5376 9.86461 12.1435 9.97376 11.7699ZM6.7611 8.48932C6.00292 8.71079 5.185 8.50145 4.62651 7.94292L3.91502 7.23143L7.23302 3.91343L7.94454 4.62495C8.50304 5.18344 8.71242 6.00136 8.49095 6.75954L8.09989 8.09826L6.7611 8.48932ZM8.5119 10.2401L8.90296 8.90141L10.2417 8.51034C10.9255 8.31056 11.658 8.46146 12.2049 8.90283C11.9612 8.91781 11.7175 8.95965 11.4789 9.02936L9.57404 9.58583L9.0176 11.4907C8.95045 11.7206 8.91007 11.9558 8.89536 12.1919C8.46106 11.6462 8.31352 10.9193 8.5119 10.2401Z" fill="#747474"/>
	<path d="M1.10844 7.21009C1.37345 5.68291 2.09506 4.29414 3.19528 3.19395C4.47945 1.90978 6.18333 1.1353 7.99305 1.01323C9.61866 0.90374 11.2297 1.32349 12.5823 2.20105C12.5292 2.3564 12.5012 2.52105 12.5012 2.69008C12.5012 3.09253 12.6579 3.4709 12.9425 3.7555C13.2362 4.04923 13.6221 4.19611 14.0079 4.19611C14.3938 4.19611 14.7796 4.04923 15.0733 3.7555C15.3579 3.4709 15.5146 3.09256 15.5146 2.69008C15.5146 2.28759 15.3579 1.90922 15.0733 1.62466C14.7887 1.34006 14.4104 1.18332 14.0079 1.18332C13.718 1.18332 13.4409 1.26505 13.202 1.41687C11.6535 0.387751 9.79838 -0.106886 7.926 0.0193383C5.87575 0.157684 3.94556 1.03498 2.49094 2.48963C1.24476 3.73581 0.42731 5.30921 0.127008 7.03979C-0.16652 8.73139 0.0509942 10.449 0.756039 12.0069L1.66352 11.5962C1.0411 10.2208 0.849188 8.70419 1.10844 7.21009ZM13.9978 2.13786C14.3027 2.13786 14.5499 2.38503 14.5499 2.68995C14.5499 2.99486 14.3027 3.24203 13.9978 3.24203C13.6929 3.24203 13.4457 2.99486 13.4457 2.68995C13.4457 2.38503 13.6929 2.13786 13.9978 2.13786Z" fill="#747474"/>
	<path d="M16.2991 5.11334L15.3853 5.50988C15.978 6.87567 16.1503 8.37516 15.8835 9.84625C15.6106 11.3511 14.8924 12.7204 13.8067 13.8062C12.5239 15.089 10.8219 15.8633 9.01422 15.9866C8.84287 15.9982 8.67195 16.004 8.50119 16.004C7.0297 16.004 5.59085 15.5729 4.36802 14.7651C4.55422 14.2351 4.43587 13.6211 4.01286 13.1981C3.72827 12.9135 3.34993 12.7568 2.94744 12.7568C2.54496 12.7568 2.16658 12.9135 1.88202 13.1981C1.29453 13.7855 1.29453 14.7414 1.88202 15.3289C2.16662 15.6135 2.54496 15.7702 2.94744 15.7702C3.2325 15.7702 3.50531 15.6912 3.74142 15.5442C5.14374 16.4932 6.80338 17.0001 8.50126 17.0001C8.69443 17.0001 8.88813 16.9936 9.08197 16.9803C11.1299 16.8408 13.0579 15.9636 14.511 14.5105C15.7408 13.2807 16.5543 11.7293 16.8636 10.024C17.1657 8.35845 16.9705 6.66038 16.2991 5.11334ZM2.94741 14.8155C2.64249 14.8155 2.39532 14.5684 2.39532 14.2634C2.39532 13.9585 2.64249 13.7114 2.94741 13.7114C3.25233 13.7114 3.4995 13.9585 3.4995 14.2634C3.4995 14.5684 3.25233 14.8155 2.94741 14.8155Z" fill="#747474"/>
</svg>